<?xml version="1.0" encoding="UTF-8" standalone="no"?>
<!DOCTYPE svg PUBLIC "-//W3C//DTD SVG 1.1//EN" "http://www.w3.org/Graphics/SVG/1.1/DTD/svg11.dtd">
<svg width="100%" height="100%" viewBox="0 0 800 500" version="1.1" xmlns="http://www.w3.org/2000/svg" xmlns:xlink="http://www.w3.org/1999/xlink" xml:space="preserve" style="fill-rule:evenodd;clip-rule:evenodd;stroke-linecap:round;stroke-linejoin:round;stroke-miterlimit:1.5;">
    <g>
        <g>
            <rect x="0" y="0" width="800" height="500" style="fill:rgb(102,153,204);"/>
            <rect x="220" y="10" width="570" height="480" style="fill:rgb(204,204,204);"/>
            <g transform="matrix(1.29412,0,0,1.4,-54.7059,8)">
                <rect x="50" y="80" width="170" height="50" style="fill:rgb(204,204,204);"/>
            </g>
            <g transform="matrix(0.963506,0,0,0.925299,122.569,-28.6649)">
                <rect x="402.105" y="52.594" width="280.227" height="497.137" style="fill:rgb(235,235,235);"/>
            </g>
            <g transform="matrix(0.963506,0,0,0.925299,-157.431,-28.6649)">
                <rect x="402.105" y="52.594" width="280.227" height="497.137" style="fill:rgb(235,235,235);"/>
            </g>
        </g>
        <g>
            <g transform="matrix(1,0,0,1,0,7)">
                <text x="26.455px" y="155.323px" style="font-family:'Impact', sans-serif;font-stretch:condensed;font-size:20px;">@3</text>
            </g>
            <g transform="matrix(1,0,0,1,71.1035,162.323)">
                <text x="0px" y="0px" style="font-family:'Impact', sans-serif;font-stretch:condensed;font-size:20px;">xp 12345</text>
            </g>
            <g transform="matrix(1,0,0,1,200,146.727)">
                <text x="0px" y="15.811px" style="font-family:'Impact', sans-serif;font-stretch:condensed;font-size:20px;">EN</text>
            </g>
        </g>
        <g transform="matrix(1,0,0,1,0,73.8194)">
            <g transform="matrix(1,0,0,1,0,7)">
                <text x="26.455px" y="155.323px" style="font-family:'Impact', sans-serif;font-stretch:condensed;font-size:20px;">@3</text>
            </g>
            <g transform="matrix(1,0,0,1,71.1035,162.323)">
                <text x="0px" y="0px" style="font-family:'Impact', sans-serif;font-stretch:condensed;font-size:20px;">xp 12345</text>
            </g>
            <g transform="matrix(1,0,0,1,200,146.727)">
                <text x="0px" y="15.811px" style="font-family:'Impact', sans-serif;font-stretch:condensed;font-size:20px;">EN</text>
            </g>
        </g>
        <g transform="matrix(0.702322,0,0,0.702322,-11.0697,40.8374)">
            <path d="M48.443,70.081C47.348,69.973 46.245,69.973 45.15,70.081L44.656,72.681C43.607,72.84 42.58,73.115 41.593,73.502L39.865,71.497C38.862,71.951 37.907,72.503 37.013,73.144L37.885,75.643C37.056,76.304 36.304,77.056 35.643,77.885L33.144,77.013C32.503,77.907 31.951,78.862 31.497,79.865L33.502,81.593C33.115,82.58 32.84,83.607 32.681,84.656L30.081,85.15C29.973,86.245 29.973,87.348 30.081,88.443L32.681,88.938C32.84,89.986 33.115,91.013 33.502,92L31.497,93.729C31.951,94.731 32.503,95.686 33.144,96.58L35.643,95.709C36.304,96.537 37.056,97.289 37.885,97.951L37.013,100.45C37.907,101.091 38.862,101.642 39.865,102.096L41.593,100.092C42.58,100.478 43.607,100.753 44.656,100.912L45.15,103.513C46.245,103.62 47.348,103.62 48.443,103.513L48.938,100.912C49.986,100.753 51.013,100.478 52,100.092L53.729,102.096C54.731,101.642 55.686,101.091 56.58,100.45L55.709,97.951C56.537,97.289 57.289,96.537 57.951,95.709L60.45,96.58C61.091,95.686 61.642,94.731 62.096,93.729L60.092,92C60.478,91.013 60.753,89.986 60.912,88.938L63.513,88.443C63.62,87.348 63.62,86.245 63.513,85.15L60.912,84.656C60.753,83.607 60.478,82.58 60.092,81.593L62.096,79.865C61.642,78.862 61.091,77.907 60.45,77.013L57.951,77.885C57.289,77.056 56.537,76.304 55.709,75.643L56.58,73.144C55.686,72.503 54.731,71.951 53.729,71.497L52,73.502C51.013,73.115 49.986,72.84 48.938,72.681L48.443,70.081ZM46.797,76.315C52.581,76.315 57.278,81.012 57.278,86.797C57.278,92.581 52.581,97.278 46.797,97.278C41.012,97.278 36.315,92.581 36.315,86.797C36.315,81.012 41.012,76.315 46.797,76.315Z" style="fill:rgb(235,235,235);"/>
        </g>
    </g>
    <g id="Home">
        <g id="Latest">
            <g transform="matrix(5,0,0,1,-1130,10)">
                <g transform="matrix(1,0,0,1,0,-6)">
                    <rect x="280" y="40" width="10" height="10" style="fill:rgb(255,153,153);"/>
                </g>
                <g transform="matrix(1,0,0,1,10,-6)">
                    <rect x="280" y="40" width="10" height="10" style="fill:rgb(204,204,204);"/>
                </g>
                <g transform="matrix(1,0,0,1,20,-6)">
                    <rect x="280" y="40" width="10" height="10" style="fill:rgb(255,153,153);"/>
                </g>
                <g transform="matrix(1,0,0,1,30,-6)">
                    <rect x="280" y="40" width="10" height="10" style="fill:rgb(153,204,102);"/>
                </g>
                <g transform="matrix(0.1436,0,0,0.718,238.686,35.4867)">
                    <text x="316.734px" y="-9.097px" style="font-family:'Baskerville', serif;font-size:20px;">The fox jumped over the fence, and</text>
                </g>
                <g transform="matrix(0.0355684,0,0,1.32297,309.329,-10.8906)">
                    <rect x="300" y="20" width="160" height="20" style="fill:rgb(235,235,235);"/>
                </g>
                <g transform="matrix(0.2,0,0,1,226,0)">
                    <path d="M230,50L500,50" style="fill:none;stroke:black;stroke-width:1px;"/>
                </g>
                <g transform="matrix(0.2,0,0,1,321.278,22.9326)">
                    <text x="0px" y="11.067px" style="font-family:'Impact', sans-serif;font-stretch:condensed;font-size:14px;">2h</text>
                </g>
                <g transform="matrix(0.2,0,0,1,280.65,19.5)">
                    <text x="0px" y="11.067px" style="font-family:'Impact', sans-serif;font-stretch:condensed;font-size:14px;">L6</text>
                </g>
                <g transform="matrix(0.2,0,0,1,272.101,21.6656)">
                    <text x="5.226px" y="15.811px" style="font-family:'Impact', sans-serif;font-stretch:condensed;font-size:20px;">+14</text>
                </g>
            </g>
            <g transform="matrix(5,0,0,1,-1130,50)">
                <g transform="matrix(1,0,0,1,0,-5)">
                    <rect x="280" y="40" width="10" height="10" style="fill:rgb(255,153,153);"/>
                </g>
                <g transform="matrix(1,0,0,1,10,-5)">
                    <rect x="280" y="40" width="10" height="10" style="fill:rgb(204,204,204);"/>
                </g>
                <g transform="matrix(1,0,0,1,20,-5)">
                    <rect x="280" y="40" width="10" height="10" style="fill:rgb(255,153,153);"/>
                </g>
                <g transform="matrix(1,0,0,1,30,-5)">
                    <rect x="280" y="40" width="10" height="10" style="fill:rgb(153,204,102);"/>
                </g>
                <g transform="matrix(0.1436,0,0,0.718,238.686,36.4867)">
                    <text x="316.734px" y="-9.097px" style="font-family:'Baskerville', serif;font-size:20px;">The fox jumped over the fence, and</text>
                </g>
                <g transform="matrix(0.0354482,0,0,1.44246,309.366,-13.8492)">
                    <rect x="300" y="20" width="160" height="20" style="fill:rgb(235,235,235);"/>
                </g>
                <g transform="matrix(0.2,0,0,1,226,0)">
                    <path d="M230,50L500,50" style="fill:none;stroke:black;stroke-width:1px;"/>
                </g>
                <g transform="matrix(0.2,0,0,1,321.278,23.9326)">
                    <text x="0px" y="11.067px" style="font-family:'Impact', sans-serif;font-stretch:condensed;font-size:14px;">2h</text>
                </g>
                <g transform="matrix(0.2,0,0,1,280.65,20.5)">
                    <text x="0px" y="11.067px" style="font-family:'Impact', sans-serif;font-stretch:condensed;font-size:14px;">L6</text>
                </g>
                <g transform="matrix(0.2,0,0,1,272.101,22.6656)">
                    <text x="5.226px" y="15.811px" style="font-family:'Impact', sans-serif;font-stretch:condensed;font-size:20px;">+14</text>
                </g>
            </g>
            <g transform="matrix(5,0,0,1,-1130,90)">
                <g transform="matrix(0.5,0,0,1,140,-5)">
                    <rect x="280" y="40" width="10" height="10" style="fill:rgb(255,153,153);"/>
                </g>
                <g transform="matrix(0.5,0,0,1,145,-5)">
                    <rect x="280" y="40" width="10" height="10" style="fill:rgb(204,204,204);"/>
                </g>
                <g transform="matrix(0.5,0,0,1,150,-5)">
                    <rect x="280" y="40" width="10" height="10" style="fill:rgb(255,153,153);"/>
                </g>
                <g transform="matrix(0.5,0,0,1,155,-5)">
                    <rect x="280" y="40" width="10" height="10" style="fill:rgb(153,204,102);"/>
                </g>
                <g transform="matrix(0.5,0,0,1,160,-5)">
                    <rect x="280" y="40" width="10" height="10" style="fill:rgb(255,153,153);"/>
                </g>
                <g transform="matrix(0.5,0,0,1,165,-5)">
                    <rect x="280" y="40" width="10" height="10" style="fill:rgb(204,204,204);"/>
                </g>
                <g transform="matrix(0.5,0,0,1,170,-5)">
                    <rect x="280" y="40" width="10" height="10" style="fill:rgb(255,153,153);"/>
                </g>
                <g transform="matrix(0.5,0,0,1,175,-5)">
                    <rect x="280" y="40" width="10" height="10" style="fill:rgb(153,204,102);"/>
                </g>
                <g transform="matrix(0.0354482,0,0,1.44246,309.366,-13.8492)">
                    <rect x="300" y="20" width="160" height="20" style="fill:rgb(235,235,235);"/>
                </g>
                <g transform="matrix(0.2,0,0,1,226,0)">
                    <path d="M230,50L500,50" style="fill:none;stroke:black;stroke-width:1px;"/>
                </g>
                <g transform="matrix(0.2,0,0,1,321.278,23.9326)">
                    <text x="0px" y="11.067px" style="font-family:'Impact', sans-serif;font-stretch:condensed;font-size:14px;">3h</text>
                </g>
                <g transform="matrix(0.2,0,0,1,280,14.698)">
                    <text x="77.144px" y="15.811px" style="font-family:'Impact', sans-serif;font-stretch:condensed;font-size:20px;">RACE!</text>
                </g>
                <g transform="matrix(0.2,0,0,1,272.101,22.6656)">
                    <text x="5.226px" y="15.811px" style="font-family:'Impact', sans-serif;font-stretch:condensed;font-size:20px;">+14</text>
                </g>
            </g>
            <g transform="matrix(5,0,0,1,-1130,170)">
                <g transform="matrix(0.0354482,0,0,1.44246,309.366,-13.8492)">
                    <rect x="300" y="20" width="160" height="20" style="fill:rgb(235,235,235);"/>
                </g>
                <g transform="matrix(0.2,0,0,1,226,0)">
                    <path d="M230,50L500,50" style="fill:none;stroke:black;stroke-width:1px;"/>
                </g>
                <g transform="matrix(0.2,0,0,1,280,20.698)">
                    <text x="68.189px" y="18.973px" style="font-family:'Impact', sans-serif;font-stretch:condensed;font-size:24px;">More...</text>
                </g>
            </g>
        </g>
        <g id="RACE-">
            <g transform="matrix(1,0,0,1.4,0,-148)">
                <path d="M490,382.5C490,375.601 482.159,370 472.5,370L257.5,370C247.841,370 240,375.601 240,382.5L240,407.5C240,414.399 247.841,420 257.5,420L472.5,420C482.159,420 490,414.399 490,407.5L490,382.5Z" style="fill:none;stroke:black;stroke-width:0.82px;"/>
            </g>
            <g transform="matrix(1.21037,0,0,1.21037,59.2206,-72.9402)">
                <text x="206.631px" y="410px" style="font-family:'Impact', sans-serif;font-stretch:condensed;font-size:37.949px;">RACE!</text>
            </g>
        </g>
        <g id="TRAIN">
            <g transform="matrix(1,0,0,2.4,0,-648)">
                <path d="M490,382.5C490,375.601 476.557,370 460,370L270,370C253.443,370 240,375.601 240,382.5L240,407.5C240,414.399 253.443,420 270,420L460,420C476.557,420 490,414.399 490,407.5L490,382.5Z" style="fill:none;stroke:black;stroke-width:0.54px;"/>
            </g>
            <g transform="matrix(0.720299,0,0,0.720299,181.738,-25.7764)">
                <text x="205.658px" y="410px" style="font-family:'Impact', sans-serif;font-stretch:condensed;font-size:37.949px;">TRAIN</text>
            </g>
            <g transform="matrix(1.16667,0,0,1.16667,-41.6667,-58.3333)">
                <circle cx="280" cy="320" r="30" style="fill:rgb(204,204,204);stroke:black;stroke-width:0.86px;"/>
            </g>
            <g transform="matrix(1.16667,0,0,1.16667,38.3333,-58.3333)">
                <circle cx="280" cy="320" r="30" style="fill:rgb(204,204,204);stroke:black;stroke-width:0.86px;"/>
            </g>
            <g transform="matrix(1.16667,0,0,1.16667,118.333,-58.3333)">
                <circle cx="280" cy="320" r="30" style="fill:rgb(204,204,204);stroke:black;stroke-width:0.86px;"/>
            </g>
            <g transform="matrix(1,0,0,1,8.14054,24.2518)">
                <text x="338.678px" y="306.378px" style="font-family:'Impact', sans-serif;font-stretch:condensed;font-size:37.949px;">L7</text>
            </g>
            <g transform="matrix(1,0,0,1,-118.293,-15.2741)">
                <text x="545.152px" y="345.274px" style="font-family:'Impact', sans-serif;font-stretch:condensed;font-size:37.949px;">L?</text>
            </g>
            <g transform="matrix(1,0,0,1,-334.901,-95.8053)">
                <text x="603.186px" y="418.805px" style="font-family:'Impact', sans-serif;font-stretch:condensed;font-size:24px;">T<tspan x="613.24px 625.112px " y="418.805px 418.805px ">ch</tspan></text>
            </g>
        </g>
        <rect x="230" y="20" width="270" height="200" style="fill:none;stroke:black;stroke-width:1px;"/>
    </g>
</svg>
